<?xml version="1.0" encoding="utf-8"?>
<!-- Generator: Adobe Illustrator 18.1.1, SVG Export Plug-In . SVG Version: 6.00 Build 0)  -->
<svg version="1.1" id="Layer_1" xmlns="http://www.w3.org/2000/svg" xmlns:xlink="http://www.w3.org/1999/xlink" x="0px" y="0px"
	 viewBox="0 0 35 35" width="64" height="64" enable-background="new 0 0 35 35" xml:space="preserve">
<g>
	<path fill="#FFFFFF" d="M26.4,3c0.8,4.5,3.2,13,2.8,15.1C28.7,20.9,20.5,35,20.5,35L2,29.3v-5.9L8.2,9.4l3.8-8.3L26.4,3z"/>
	<polygon fill="#B3F4F2" points="30.7,2 16.1,0 11.8,1.1 26.4,3 	"/>
	<path fill="#7FC6C2" d="M20.5,35c0,0,8.1-14.1,8.6-16.8c0.4-2.1-1.9-10.7-2.8-15.1L30.7,2c0.8,4.5,3.2,13,2.8,15.1
		c-0.5,2.7-8.9,16.8-8.9,16.8L20.5,35z"/>
</g>
</svg>
