<?xml version="1.0" encoding="utf-8"?>
<!-- Generator: Adobe Illustrator 18.1.1, SVG Export Plug-In . SVG Version: 6.00 Build 0)  -->
<svg version="1.1" id="Layer_1" xmlns="http://www.w3.org/2000/svg" xmlns:xlink="http://www.w3.org/1999/xlink" x="0px" y="0px"
	 viewBox="0 0 35 35" width="64" height="64" enable-background="new 0 0 35 35" xml:space="preserve">
<g>
	<path fill="#FFFFFF" d="M7.3,2.5L3,23.2l2.2,9.2l20.6-10.5l2.3-6.4c0,0-1.8-10.7-4.7-12.9s-9.6-2.2-9.6-2.2L7.3,2.5z"/>
	<path fill="#B3F4F2" d="M21.3,1.5c0.8,0.3,1.5,0.6,2,1.1c3,2.2,4.7,12.9,4.7,12.9l3.9,2c0,0-1.8-10.7-4.7-12.9
		C27.3,4.5,22.9,1.6,21.3,1.5z"/>
	<polygon fill="#95DBD2" points="29.7,23.8 32,17.4 28.1,15.4 25.8,21.8 	"/>
	<polygon fill="#7FC6C2" points="9.1,34.3 29.7,23.8 25.8,21.8 5.1,32.3 	"/>
</g>
</svg>
