<?xml version="1.0" encoding="utf-8"?>
<!-- Generator: Adobe Illustrator 18.1.1, SVG Export Plug-In . SVG Version: 6.00 Build 0)  -->
<svg version="1.1" id="Layer_1" xmlns="http://www.w3.org/2000/svg" xmlns:xlink="http://www.w3.org/1999/xlink" x="0px" y="0px"
	 viewBox="0 0 130 130" enable-background="new 0 0 130 130" xml:space="preserve">
<g>
	<g>
		<path fill="#1A1942" d="M101.1,130H28.9C13,130,0,117,0,101.1V28.9C0,13,13,0,28.9,0h72.1C117,0,130,13,130,28.9v72.1
			C130,117,117,130,101.1,130z"/>
		<linearGradient id="SVGID_1_" gradientUnits="userSpaceOnUse" x1="118.8769" y1="8.207" x2="30.6391" y2="100.9776">
			<stop  offset="0" style="stop-color:#51FFFF"/>
			<stop  offset="0.13" style="stop-color:#53F6F9;stop-opacity:0.8383"/>
			<stop  offset="0.3461" style="stop-color:#5ADCE9;stop-opacity:0.5693"/>
			<stop  offset="0.6201" style="stop-color:#64B3CF;stop-opacity:0.2284"/>
			<stop  offset="0.7387" style="stop-color:#699FC2;stop-opacity:8.086496e-002"/>
			<stop  offset="0.9944" style="stop-color:#005B97;stop-opacity:0"/>
		</linearGradient>
		<path opacity="0.3" fill="url(#SVGID_1_)" d="M101.1,130C65.4,130-2,64.6,0,28.9C1,11.5,13,0,29,0h72.1c16,0,28.9,13,28.9,28.9
			v72.1C130,117,116.5,130,101.1,130z"/>
	</g>
	<path fill="none" d="M113.7,85c0,2.3,1.8,4,4.1,4h6.2v-8h-6.2C115.5,81,113.7,82.7,113.7,85z"/>
	<path fill="none" d="M113.7,100c0,2.3,1.8,4,4.1,4h5c0.5-2.1,1.2-4.3,1.2-6.5V96h-6.2C115.5,96,113.7,97.7,113.7,100z"/>
	<path fill="none" d="M112.9,117c0,0.5,0.1,0.9,0.3,1.4c2-1.5,3.8-3.3,5.4-5.4h-1.6C114.7,113,112.9,114.8,112.9,117z"/>
	<path fill="none" d="M87.4,81h-9.6c-2.3,0-4.1,1.7-4.1,4s1.8,4,4.1,4h9.6c2.3,0,4.1-1.7,4.1-4S89.7,81,87.4,81z"/>
	<path fill="none" d="M87.4,96h-9.6c-2.3,0-4.1,1.7-4.1,4s1.8,4,4.1,4h9.6c2.3,0,4.1-1.7,4.1-4S89.7,96,87.4,96z"/>
	<path fill="none" d="M85.9,113h-9c-2.2,0-4,1.8-4,4s1.8,4,4,4h9c2.2,0,4-1.8,4-4S88.1,113,85.9,113z"/>
	<path fill="#FFFFFF" d="M116.3,83h5.7V70H70.9C66,70,62,74.6,62,79.5V122h35.8c5.3,0,10.3-2,14.2-4.9c1.4-1.1,4.9-5,4.9-5
		c1.8-2.4,3.2-6.1,3.9-8.1h-4.5c-2.1,0-3.7-1.9-3.7-4s1.7-4,3.7-4h5.7v-6h-5.7c-2.1,0-3.7-1.4-3.7-3.5S114.3,83,116.3,83z M79.9,83
		h8.7c2.1,0,3.7,1.4,3.7,3.5S90.7,90,88.6,90h-8.7c-2.1,0-3.7-1.4-3.7-3.5S77.8,83,79.9,83z M79.9,96h8.7c2.1,0,3.7,1.9,3.7,4
		s-1.7,4-3.7,4h-8.7c-2.1,0-3.7-1.9-3.7-4S77.8,96,79.9,96z"/>
	<path fill="none" d="M34.8,72.1c-0.2-2.1-0.7-4.1-1-6.1c-0.1,0-0.3,0-0.4,0c-0.4,3-0.9,5.8-1.3,8.8C32.9,73.8,34.9,73.8,34.8,72.1z
		"/>
	<path fill="none" d="M37,96c-2.5,1.9-4.9,3.8-7.4,5.6c-0.9,0.7-0.9,1,0,1.7c3.6,2.7,7.2,5.4,11.2,8.5c-0.8-5.5-1.5-10.5-2.3-15.5
		C38.3,95.1,37.6,95.6,37,96z"/>
	<path fill="none" d="M32.4,81c1.3,1.1,2.5,2.1,4.2,3.6c-0.3-2.7-0.4-4.7-1.2-6.9c-1.1,0.8-2,1.5-2.8,2.2
		C32.1,80.2,31.8,80.5,32.4,81z"/>
	<path fill="none" d="M36.2,89.9c-1.8-1.5-3.7-3.1-5.8-4.9c-0.6,4.1-1.2,7.8-1.8,12c2.8-2.1,5.3-3.9,7.7-5.8
		C37,90.7,36.7,90.4,36.2,89.9z"/>
	<g>
		<path fill="#FFFFFF" d="M38.5,45.3c-0.2-1.1,0-1.8,1.1-2.4c1.9-1,2.8-3.4,2.2-5.3c-0.6-2.2-2.5-3.6-4.7-3.6
			c-2.2,0-4.1,1.4-4.7,3.6c-0.5,1.9,0.3,4.2,2.3,5.3c1,0.6,1.3,1.1,1.1,2.2c-0.7,4.5-1.3,9-2,13.4c-2.2,14.4-4.5,28.7-6.7,43.2
			c-1,6.8-2.1,13.7-3.1,20.3h5.4c0.5-3.8,0.9-6.1,1.4-9.1c0.2-1.2,0.4-1.4,1.4-0.6c3.6,2.7,7.2,5.5,10.8,8.2c0.7,0.5,1,0.9,0.1,1.6
			c0,0-0.1,0-0.1,0h7.2c-2-13.2-3.9-25.4-5.9-38.1C42.4,71,40.4,58.2,38.5,45.3z M36.9,73c0.1,0,0.3,0,0.4,0c0.3,2,0.8,3.7,1,5.7
			c0.2,1.6-1.7,1.6-2.6,2.6C36.1,78.5,36.5,76,36.9,73z M36.2,86c0.8-0.6,1.7-1.3,2.7-2.1c0.7,2,0.8,4,1.1,6.5
			c-1.6-1.3-2.8-2.4-4-3.4C35.4,86.6,35.8,86.3,36.2,86z M34.1,90.8c2,1.7,3.7,3.2,5.5,4.6c0.5,0.4,0.8,0.8,0.1,1.2
			c-2.3,1.7-4.7,3.5-7.3,5.5C33,98.3,33.5,94.7,34.1,90.8z M33.3,108.1c-0.8-0.6-0.8-1,0-1.6c2.4-1.7,4.7-3.5,7-5.3
			c0.6-0.4,1.2-0.9,1.4,0.2c0.7,4.7,1.4,9.5,2.2,14.7C40.1,113.2,36.7,110.7,33.3,108.1z"/>
		<path fill="#FFFFFF" d="M61.6,34c-1.6-7.9-6.8-14.1-14-17.8c-4.2-1.9-9-2.7-14.2-1.9c-9.5,1.5-16.6,7.4-19.6,15.5
			c4.1-8.1,12.4-13.6,22.1-13.6c-9.7,0-18,5.6-22.1,13.7c-1.2,3.3-1.8,7-1.5,11c0.5,8.5,4.8,14.9,12,19.4c0.5,0.3,1,0.8,1.6,0.1
			c1.2-1.2,1.1-2.5-0.3-3.4c-8.1-5.2-11.7-14.9-9.1-24.1c2.5-8.9,10.9-15.3,20.2-15.4c9.5-0.2,18.1,6,20.9,15
			c2.9,9.3-0.7,19.2-8.9,24.4c-1.6,1-1.3,1.7-0.6,3c0.9,1.7,1.8,0.4,2.6-0.1C58,54.8,61.8,47.8,62.1,39C62.1,37.3,61.9,35.6,61.6,34
			z"/>
		<path fill="#FFFFFF" d="M28,49.7c0.8-0.9,1.8-1.5,0.4-3c-4.4-4.6-4-12,0.5-16.4c4.5-4.4,12-4.3,16.4,0.1
			c4.6,4.5,4.9,11.7,0.4,16.4c-1.5,1.6-0.2,2.1,0.5,3c1,1.2,1.5,0,2-0.5c4.2-4.2,5.4-10.9,2.9-16.5c-2.7-5.9-7.5-9-14.1-9.2
			c-6.4,0.2-11.2,3.2-13.9,9.1c-2.7,5.9-1.6,11.5,2.6,16.4C26.3,49.6,26.8,51.1,28,49.7z"/>
	</g>
	<path fill="#FFFFFF" d="M105.2,64.9c0.8-2.7-2-4.2-3.6-6.1c-1.4-1.7-2.7-1.7-4.5-0.2c-5,4.1-10.7,4.9-16.9,2.6
		c0.5,0.1,1,0.1,1.4,0.2c13,1.1,23-10.7,19-22.5c-3.4-10.1-10.2-9.2-17.4-4c-0.5,0.4-0.9,0.9-0.5,1.5c0.3,0.6,0.9,0.9,1.5,0.8
		c0.7-0.1,1.3-0.4,2-0.7c2-0.8,4.2-1.8,5.9,0.1c1.6,1.8,1.1,4.2,0.2,6.3c-0.7,1.5-1.5,2.8-2.5,4c0.1,0.2,0.1,0.4,0.2,0.7
		c-0.2,1.1-0.8,1.8-1.7,2.3c-0.6,0.3-1.2,0.4-1.7,0.1c-1.5,1.1-3.2,2.1-4.9,2.9c-1.6,0.8-3.5,1.2-5-0.4c-1.5-1.6-1-3.5-0.6-5.4
		c0.3-1.4,2.4-3.2,0.2-4.1c-2-0.9-2.3,1.7-3,3c-3.4,6.1-2.8,9,2.6,13.5c1.1,0.9,0.6,1.4,0.1,2.2c-1.8,3.5-1.6,4.6,1.6,5.3H103
		C104,66.7,104.8,66.1,105.2,64.9z"/>
	<path fill="#FFFFFF" d="M89.8,48.8c-0.2-0.4-0.5-0.8-0.8-1.1c-2.5-2.7-5.8-4.5-7.8-7.8c-0.9-1.5-2.9-1.2-4.1,0.3
		c-1.2,1.6-0.5,3,1,3.7c1.5,0.8,2.9,1.7,4,3.1c1.2,1.5,2.4,2.9,3.7,4.3c0.2,0.3,0.5,0.5,0.7,0.6C87.8,51,88.8,50,89.8,48.8z"/>
	<path fill="#FFFFFF" d="M88.2,51.8c0.9-0.5,1.6-1.2,1.7-2.3c0-0.2-0.1-0.5-0.2-0.7c-1,1.2-2,2.2-3.2,3.1
		C87.1,52.2,87.6,52.1,88.2,51.8z"/>
</g>
</svg>
