<?xml version="1.0" encoding="utf-8"?>
<!-- Generator: Adobe Illustrator 18.1.1, SVG Export Plug-In . SVG Version: 6.00 Build 0)  -->
<svg version="1.1" id="Layer_1" xmlns="http://www.w3.org/2000/svg" xmlns:xlink="http://www.w3.org/1999/xlink" x="0px" y="0px"
	 viewBox="0 0 130 130" enable-background="new 0 0 130 130" xml:space="preserve">
<g>
	<path fill="#1A1942" d="M101.1,130H28.9C13,130,0,117,0,101.1V28.9C0,13,13,0,28.9,0h72.1C117,0,130,13,130,28.9v72.1
		C130,117,117,130,101.1,130z"/>
	<linearGradient id="SVGID_1_" gradientUnits="userSpaceOnUse" x1="118.8769" y1="8.207" x2="30.6391" y2="100.9776">
		<stop  offset="0" style="stop-color:#51FFFF"/>
		<stop  offset="0.13" style="stop-color:#53F6F9;stop-opacity:0.8383"/>
		<stop  offset="0.3461" style="stop-color:#5ADCE9;stop-opacity:0.5693"/>
		<stop  offset="0.6201" style="stop-color:#64B3CF;stop-opacity:0.2284"/>
		<stop  offset="0.7387" style="stop-color:#699FC2;stop-opacity:8.086496e-002"/>
		<stop  offset="0.9944" style="stop-color:#005B97;stop-opacity:0"/>
	</linearGradient>
	<path opacity="0.3" fill="url(#SVGID_1_)" d="M101.1,130C65.4,130-2,64.6,0,28.9C1,11.5,13,0,29,0h72.1c16,0,28.9,13,28.9,28.9
		v72.1C130,117,116.5,130,101.1,130z"/>
	<g>
		<g>
			<path fill="#FFFFFF" d="M65.7,20.6c3.1,0.5,5.6,1.9,7.8,4.2c1.8,1.9,3.2,4,4.3,6.3c0.9,1.9,1.7,3.9,2.5,5.9
				c0.1,0.3,0.2,0.6,0.4,1c2-0.3,3.9-0.6,5.8-0.8c3.9-0.4,7.8-0.3,11.5,1.1c5.6,2.2,7.9,7.2,6.3,13.3c-1,3.8-3,7.2-5.4,10.3
				c-3.7,4.8-8.1,8.8-12.9,12.5c-0.1,0.1-0.2,0.1-0.5,0.3c0.4-2.6,0.7-5.1,1.1-7.6c0.1-0.3,0.4-0.7,0.7-0.9c3.3-3,6.4-6.2,8.9-9.9
				c1.5-2.3,2.8-4.7,3-7.5c0.2-2.4-0.7-4.1-3-5c-1.2-0.5-2.4-0.8-3.7-1c-3.5-0.4-6.9,0-10.4,0.7c2.9,13.6,3,27.2,0.5,40.9
				c-1.9-0.1-3.7-0.2-5.6-0.3c0.2-1.2,0.4-2.4,0.6-3.6c1.3-8.1,1.5-16.2,0.8-24.3c-0.6-6.9-1.9-13.6-4.5-20
				c-1.1-2.7-2.4-5.2-4.4-7.3c-0.3-0.3-0.6-0.7-1-1c-2.4-2.1-5-2.1-7.4,0.1c-2.2,2-3.6,4.5-4.8,7.1c-1.6,3.5-2.6,7.2-3.5,11
				c-0.1,0.4-0.3,0.8-0.6,1.1c-1.8,1.6-3.7,3.2-5.6,4.8c-0.1,0.1-0.2,0.2-0.5,0.4c0.3-1.8,0.5-3.5,0.8-5.1
				c0.9-5.2,2.3-10.3,4.7-15.1c1.1-2.2,2.4-4.2,3.8-6.2c2.2-2.9,5.1-4.8,8.8-5.3C64.9,20.6,65.3,20.6,65.7,20.6z"/>
			<path fill="#FFFFFF" d="M63.3,87.6c-2.6,0.9-4.9,1.8-7.2,2.6c-5.8,1.9-11.8,3.3-17.9,2.8c-2-0.1-4-0.5-5.8-1.2
				c-5.5-2-8-6.7-6.8-12.5c0.9-4.4,3.2-8.1,6-11.6c0.7-0.9,1.5-1.8,2.2-2.7c-1.1-1.4-2.3-2.9-3.4-4.3c-2.1-3-3.9-6.1-4.7-9.8
				c-1.4-6.5,1.7-11.5,8.1-13.2c3.8-1,7.5-0.9,11.4-0.4c1,0.1,2,0.3,3.2,0.5c-0.9,1.7-1.6,3.3-2.5,4.8c-0.1,0.2-0.6,0.2-0.9,0.2
				c-2.8-0.4-5.5-0.5-8.3-0.1c-0.8,0.1-1.6,0.3-2.3,0.6c-2.8,1.1-3.9,3.1-3.3,6.1c0.4,2.2,1.3,4.1,2.5,5.9c1.3,1.9,2.7,3.7,4.1,5.7
				c10.7-9.6,22.6-16.6,36.1-21.2c0.2,1.8,0.5,3.6,0.7,5.3c0,0.2-0.3,0.4-0.5,0.5c-6.6,2.4-12.9,5.5-18.9,9.2
				c-6.8,4.3-13.1,9.2-18.3,15.3c-1.9,2.2-3.6,4.6-4.7,7.3c-0.4,0.9-0.7,1.8-0.9,2.8c-0.7,3.2,0.6,5.5,3.8,6.5
				c2.7,0.9,5.4,0.8,8.2,0.6c4.1-0.3,8-1.4,11.9-2.6c0.5-0.1,1.1-0.1,1.5,0c2,0.7,4,1.5,6,2.3C62.6,87.3,62.8,87.4,63.3,87.6z"/>
			<path fill="#FFFFFF" d="M80.7,92.1c-0.6,1.6-1.3,3.3-2,4.9c-1.4,3.1-3.1,6-5.5,8.5c-4.9,5.1-11.1,5.2-16.1,0.3
				c-3.2-3.2-5.2-7.1-6.8-11.3c1.7-0.8,3.3-1.6,5-2.4c0.5,1.1,0.9,2.3,1.4,3.3c1,1.8,2,3.5,3.1,5.2c0.6,0.9,1.4,1.6,2.3,2.2
				c1.9,1.4,3.9,1.4,5.9,0c2-1.4,3.4-3.4,4.5-5.5c1.1-2.1,1.9-4.3,3-6.6c-13.8-4.4-26-11.4-36.9-20.9c1.7-1,3.2-1.9,4.8-2.8
				c0.2-0.1,0.6,0.1,0.9,0.3c3.6,3,7.4,5.8,11.4,8.2c8.1,5,16.7,8.9,26,11.1c3.8,0.9,7.6,1.3,11.5,0.8c1-0.1,2-0.4,2.9-0.8
				c2.7-1.1,3.7-3.1,3.2-6c-0.6-2.9-2-5.3-3.7-7.7c-0.7-1.1-1.6-2.1-2.4-3.2c1.6-0.9,3.2-1.9,4.8-2.8c2.1,2.5,3.9,5.1,5.2,8.1
				c0.9,2,1.6,4,1.7,6.1c0.3,5.3-2.4,9.2-7.4,10.9c-3.3,1.1-6.7,1.2-10.1,1C85,92.8,82.9,92.4,80.7,92.1z"/>
			<path fill="#FFFFFF" d="M64.9,73.3c-4.6-0.1-8.3-3.8-8.2-8.4c0-4.6,3.9-8.3,8.4-8.3c4.6,0.1,8.3,3.8,8.2,8.5
				C73.3,69.7,69.5,73.4,64.9,73.3z"/>
		</g>
	</g>
</g>
</svg>
