<?xml version="1.0" encoding="utf-8"?>
<!-- Generator: Adobe Illustrator 18.1.1, SVG Export Plug-In . SVG Version: 6.00 Build 0)  -->
<svg version="1.1" id="Layer_1" xmlns="http://www.w3.org/2000/svg" xmlns:xlink="http://www.w3.org/1999/xlink" x="0px" y="0px"
	 viewBox="0 0 130 130" enable-background="new 0 0 130 130" xml:space="preserve">
<g>
	<path fill="#1A1942" d="M101.1,130H28.9C13,130,0,117,0,101.1V28.9C0,13,13,0,28.9,0h72.1C117,0,130,13,130,28.9v72.1
		C130,117,117,130,101.1,130z"/>
	<linearGradient id="SVGID_1_" gradientUnits="userSpaceOnUse" x1="118.8769" y1="8.207" x2="30.6391" y2="100.9776">
		<stop  offset="0" style="stop-color:#51FFFF"/>
		<stop  offset="0.13" style="stop-color:#53F6F9;stop-opacity:0.8383"/>
		<stop  offset="0.3461" style="stop-color:#5ADCE9;stop-opacity:0.5693"/>
		<stop  offset="0.6201" style="stop-color:#64B3CF;stop-opacity:0.2284"/>
		<stop  offset="0.7387" style="stop-color:#699FC2;stop-opacity:8.086496e-002"/>
		<stop  offset="0.9944" style="stop-color:#005B97;stop-opacity:0"/>
	</linearGradient>
	<path opacity="0.3" fill="url(#SVGID_1_)" d="M101.1,130C65.4,130-2,64.6,0,28.9C1,11.5,13,0,29,0h72.1c16,0,28.9,13,28.9,28.9
		v72.1C130,117,116.5,130,101.1,130z"/>
	<g>
		<rect x="91.5" y="24" fill="#FFFFFF" width="11.1" height="15.4"/>
		<path fill="#FFFFFF" d="M62.4,97.6l25.2-23.1l3.9,21.6l21.1-2.6l-4,8.3l9.4-6.4V84.8c-8-4-16.4-10.5-25.4-20.6
			C65.4,33.4,28.5,37.9,28.5,37.9s-2.8,16.3,7,29c3.9,5,11.3,21.2,6.8,24.4C33.1,98,33.6,106,33.6,106l8.4,0l18.3-23.2L62.4,97.6z"
			/>
		<path fill="#FFFFFF" d="M28.5,106L14.2,91.5l11.5,4.8l-4.7-24.5l12.3,15.2l-0.3-12.5c0,0,5.9,9.4,5.2,12.8c-0.8,3.4-1.7,4-3.2,5.2
			C33.5,93.7,28.6,96.7,28.5,106z"/>
		<polygon fill="#FFFFFF" points="114,33 107,33 107,41.6 114,47 		"/>
		<path fill="#FFFFFF" d="M104.4,44.9c-1.5-0.9-2.4-0.9-4.2-0.9H74.3l8.3,5h16.1l-1,15c0,0,9.4,9.1,20.4,16.1V53.2L104.4,44.9z
			 M110.3,64.6l-0.1,0.1c-0.4,0.7-1.4,0.9-2.1,0.5l-2.5-1.6c-0.7-0.4-0.9-1.4-0.5-2.1l0.1-0.1c0.4-0.7,1.4-0.9,2.1-0.5l2.5,1.6
			C110.5,63,110.7,63.9,110.3,64.6z M110.3,59l-0.1,0.1c-0.4,0.7-1.4,0.9-2.1,0.5l-2.5-1.6c-0.7-0.4-0.9-1.4-0.5-2.1l0.1-0.1
			c0.4-0.7,1.4-0.9,2.1-0.5l2.5,1.6C110.5,57.4,110.7,58.3,110.3,59z M110.3,53.4l-0.1,0.1c-0.4,0.7-1.4,0.9-2.1,0.5l-2.5-1.6
			c-0.7-0.4-0.9-1.4-0.5-2.1l0.1-0.1c0.4-0.7,1.4-0.9,2.1-0.5l2.5,1.6C110.5,51.8,110.7,52.7,110.3,53.4z M117.3,68.7l-0.1,0.1
			c-0.4,0.7-1.4,0.9-2.1,0.5l-2.5-1.6c-0.7-0.4-0.9-1.4-0.5-2.1l0.1-0.1c0.4-0.7,1.4-0.9,2.1-0.5l2.5,1.6
			C117.5,67.1,117.7,68,117.3,68.7z M117.3,63.1l-0.1,0.1c-0.4,0.7-1.4,0.9-2.1,0.5l-2.5-1.6c-0.7-0.4-0.9-1.4-0.5-2.1l0.1-0.1
			c0.4-0.7,1.4-0.9,2.1-0.5l2.5,1.6C117.5,61.5,117.7,62.4,117.3,63.1z M117.3,57.5l-0.1,0.1c-0.4,0.7-1.4,0.9-2.1,0.5l-2.5-1.6
			c-0.7-0.4-0.9-1.4-0.5-2.1l0.1-0.1c0.4-0.7,1.4-0.9,2.1-0.5l2.5,1.6C117.5,55.9,117.7,56.8,117.3,57.5z"/>
		<g>
			<path fill="#1A1942" d="M71.1,63.1c0,0,0,0.1,0,0.1c0,1.1-0.3,2.2-0.6,3.2c-0.4,1.2-1,2.3-1.8,3.3c-0.9,1.1-2,2.1-3.3,2.8
				c-0.9,0.5-1.9,0.9-2.9,1.1c-0.2,0-0.3,0.1-0.5,0.1c-0.1,0-0.1,0-0.1-0.1c-0.1-0.3-0.2-0.7-0.2-1c0-0.3-0.1-0.6-0.1-0.9
				c0-0.9,0.2-1.7,0.6-2.5c0.2-0.5,0.6-1,0.9-1.5c0.1-0.1,0.2-0.1,0.3-0.1c0.4,0,0.9,0.1,1.3,0c0.2,0,0.5,0,0.7-0.1
				c0.3,0,0.7-0.1,1-0.2c0.1,0,0.1,0,0.1-0.1c0-0.2,0-0.5,0-0.7c0-0.4-0.1-0.7-0.2-1c-0.2-0.6-0.4-1.3-0.8-1.8
				c-0.3-0.6-0.7-1.2-1.1-1.7c-0.2-0.3-0.5-0.6-0.7-0.9c-0.4-0.5-0.8-0.9-1.1-1.5c-0.2-0.4-0.3-0.8-0.2-1.2c0,0,0,0,0-0.1
				c0-0.2,0-0.2,0.2-0.1c0.3,0.1,0.6,0.1,0.9,0.1c0.2,0,0.4,0,0.6,0c0.8,0,1.6-0.2,2.4-0.5c0.6-0.3,1.2-0.6,1.7-1.1
				c0.2-0.1,0.3-0.3,0.5-0.5c0.2-0.2,0.1-0.2,0.3,0c0.4,0.5,0.7,1.1,1,1.6c0.4,0.9,0.7,1.8,0.9,2.8C71,61,71,61.4,71,61.8
				c0,0.2,0,0.3,0,0.5c0,0,0,0.1,0,0.1C71.1,62.6,71.1,62.8,71.1,63.1z"/>
			<path fill="#1A1942" d="M48.9,62.6c0-0.9,0.1-1.7,0.3-2.6c0.1-0.4,0.2-0.8,0.3-1.1c0-0.1,0-0.1,0.2-0.1c0.9,0.2,1.8,0.7,2.6,1.3
				c0.9,0.7,1.5,1.7,2,2.8c0,0.1,0,0.2,0,0.3c-0.6,0.8-1,1.7-1.3,2.7c0,0,0,0,0,0c0,0.2,0,0.2,0.1,0.3c0.6,0.4,1.2,0.6,1.9,0.8
				c0.5,0.1,0.9,0.2,1.4,0.2c0.3,0,0.5,0,0.8,0c0.4,0,0.8,0,1.3-0.1c0.6-0.1,1.1-0.2,1.7-0.3c0.4-0.1,0.8-0.1,1.3-0.1
				c0.4,0,0.8,0.1,1.1,0.2c0.1,0.1,0.3,0.1,0.4,0.2c0.1,0.1,0.1,0.1,0,0.2c-0.5,0.5-0.8,1.1-1.1,1.7c-0.2,0.5-0.4,1.1-0.5,1.7
				c0,0.3,0,0.5-0.1,0.8c0,0.7,0.1,1.4,0.3,2.1c0,0.1,0,0.1-0.1,0.1c-0.2,0-0.4,0.1-0.6,0.1c-0.2,0-0.3,0-0.5,0
				c-1.1,0-2.2-0.2-3.2-0.5c-0.5-0.2-1-0.4-1.5-0.6c-0.5-0.2-1-0.5-1.5-0.8c-0.5-0.3-0.9-0.7-1.4-1.1c-0.7-0.6-1.3-1.4-1.9-2.2
				c-0.6-1-1.1-2-1.4-3.1c-0.2-0.6-0.3-1.2-0.3-1.8C49,63.3,48.9,62.9,48.9,62.6z"/>
			<path fill="#1A1942" d="M63.9,57.7c-0.4,0-0.8,0-1.2-0.1c-0.1,0-0.2-0.1-0.2-0.1c-0.3-0.7-0.7-1.3-1.1-1.9
				c-0.2-0.2-0.4-0.5-0.6-0.7c-0.1-0.1-0.1-0.1-0.3,0c-0.6,0.3-1.1,0.6-1.6,1.1c-0.6,0.6-1.1,1.2-1.5,1.9c-0.4,0.7-0.7,1.4-0.9,2.2
				c-0.2,0.6-0.4,1.2-0.8,1.7c-0.3,0.4-0.6,0.7-0.9,1c0,0,0,0-0.1,0c-0.1,0-0.1,0-0.1,0c0-0.1-0.1-0.2-0.1-0.3
				c-0.3-0.7-0.7-1.4-1.2-2c-0.7-0.8-1.6-1.4-2.6-1.8c-0.3-0.1-0.6-0.2-0.8-0.3c-0.1,0-0.1,0-0.1-0.2c0.3-0.7,0.6-1.3,1-1.8
				c0.4-0.6,0.8-1.1,1.3-1.6c0.4-0.3,0.7-0.7,1.1-0.9c0.4-0.3,0.8-0.6,1.2-0.8c0.5-0.3,1.1-0.6,1.7-0.8c0.7-0.3,1.5-0.5,2.2-0.6
				c0.3,0,0.7-0.1,1-0.1c0.2,0,0.5,0,0.7,0c1,0,1.9,0.1,2.8,0.4c0.7,0.2,1.3,0.4,1.9,0.7c0.7,0.4,1.4,0.8,2.1,1.3
				c0.4,0.3,0.7,0.6,1.1,1c0.1,0.1,0.3,0.3,0.4,0.4c0.1,0.1,0.1,0.1,0,0.2c-0.3,0.3-0.6,0.6-0.9,0.8c-0.6,0.5-1.4,0.8-2.1,1
				C65,57.6,64.5,57.7,63.9,57.7z"/>
			<path fill="#1A1942" d="M60.1,65c-1.2,0-2.3-1-2.3-2.3c0-1.3,1.1-2.4,2.4-2.3c1.2,0,2.3,1,2.3,2.3C62.4,64,61.3,65.1,60.1,65z"/>
		</g>
	</g>
</g>
</svg>
