<?xml version="1.0" encoding="utf-8"?>
<!-- Generator: Adobe Illustrator 18.1.1, SVG Export Plug-In . SVG Version: 6.00 Build 0)  -->
<svg version="1.1" id="Layer_1" xmlns="http://www.w3.org/2000/svg" xmlns:xlink="http://www.w3.org/1999/xlink" x="0px" y="0px"
	 viewBox="0 0 130 130" enable-background="new 0 0 130 130" xml:space="preserve">
<g>
	<path fill="#1A1942" d="M101.1,130H28.9C13,130,0,117,0,101.1V28.9C0,13,13,0,28.9,0h72.1C117,0,130,13,130,28.9v72.1
		C130,117,117,130,101.1,130z"/>
	<linearGradient id="SVGID_1_" gradientUnits="userSpaceOnUse" x1="118.8769" y1="8.207" x2="30.6391" y2="100.9776">
		<stop  offset="0" style="stop-color:#51FFFF"/>
		<stop  offset="0.13" style="stop-color:#53F6F9;stop-opacity:0.8383"/>
		<stop  offset="0.3461" style="stop-color:#5ADCE9;stop-opacity:0.5693"/>
		<stop  offset="0.6201" style="stop-color:#64B3CF;stop-opacity:0.2284"/>
		<stop  offset="0.7387" style="stop-color:#699FC2;stop-opacity:8.086496e-002"/>
		<stop  offset="0.9944" style="stop-color:#005B97;stop-opacity:0"/>
	</linearGradient>
	<path opacity="0.3" fill="url(#SVGID_1_)" d="M101.1,130C65.4,130-2,64.6,0,28.9C1,11.5,13,0,29,0h72.1c16,0,28.9,13,28.9,28.9
		v72.1C130,117,116.5,130,101.1,130z"/>
	<g>
		<g>
			<path fill="#FFFFFF" d="M48.8,17.7c0.7,0.6,1.6,1,2.2,1.7c6.1,6.1,12.2,12.2,18.3,18.2c1.6,1.6,1.6,3,0,4.5
				c-1.8,1.8-3.6,3.6-5.4,5.4c1,1,2,1.9,3.1,3c0.7-0.7,1.4-1.5,2.2-2.2c1-0.9,2-1.8,3-2.5c1.1-0.8,2.4-1,3.8-0.7
				c0.3,0.1,0.7-0.1,0.9-0.3c2.2-2.2,5.4-2.8,8.3-1.6c2.8,1.2,4.6,3.9,4.6,7c0,2-0.8,3.8-2.2,5.3c-0.2,0.2-0.4,0.6-0.3,0.8
				c0.4,1.6,0,3-1,4.3c-0.6,0.8-1.3,1.6-1.9,2.3c-0.4,0.4-0.9,0.8-1.3,1.1C84,65.1,85,66,86,67c1.3-1.3,2.7-2.7,4.1-4.2
				c1.4-1.4,2.9-1.4,4.3,0c6.3,6.3,12.7,12.6,19,19c1.3,1.3,1.3,2.9,0,4.2c-4.4,4.4-8.8,8.8-13.2,13.2c-1.4,1.4-2.9,1.3-4.2,0
				C89.7,93,83.4,86.7,77.1,80.4c-1.5-1.5-1.5-2.9,0-4.5c1.8-1.8,3.6-3.6,5.3-5.3c-1-1-2-2-3-3c-2,2-4,4.1-6.2,6.3
				c-2.6-7.4-7.5-12.3-14.8-14.9c1.7-1.7,3.4-3.4,5-5c-1.1-1-2-2-3.1-3c-1.1,1.1-2.3,2.2-3.4,3.4c-2.3,2.5-3.7,2.2-5.9,0
				c-6-6.1-12-12.1-18-18.1c-1.5-1.5-1.5-3,0-4.5c4.1-4.1,8.2-8.2,12.4-12.3c0.7-0.7,1.5-1.2,2.3-1.8C48.1,17.7,48.4,17.7,48.8,17.7
				z M48.2,31.9c1.3-1.2,2.5-2.5,3.8-3.7c-1.2-1.2-2.5-2.5-3.6-3.6c-1.2,1.2-2.5,2.5-3.7,3.7C45.8,29.5,47,30.8,48.2,31.9z
				 M46.1,34.1c-1.2-1.2-2.5-2.5-3.7-3.7c-1.2,1.2-2.5,2.5-3.7,3.6c1.2,1.2,2.5,2.5,3.7,3.8C43.6,36.6,44.9,35.3,46.1,34.1z
				 M60,36.3c-1.2,1.2-2.5,2.5-3.7,3.7c1.2,1.2,2.5,2.5,3.6,3.7c1.2-1.2,2.5-2.5,3.7-3.8C62.4,38.7,61.1,37.4,60,36.3z M54.1,42.1
				c-1.2,1.2-2.5,2.5-3.7,3.7c1.2,1.2,2.5,2.5,3.7,3.7c1.2-1.2,2.5-2.5,3.7-3.7C56.6,44.6,55.3,43.3,54.1,42.1z M92.3,68.6
				c-1.2,1.2-2.5,2.5-3.6,3.6c1.2,1.2,2.4,2.6,3.6,3.7c1.3-1.3,2.5-2.5,3.7-3.7C94.8,71.1,93.5,69.8,92.3,68.6z M90.1,78.2
				c-1.2-1.2-2.5-2.5-3.7-3.7c-1.2,1.2-2.5,2.5-3.7,3.7c1.2,1.2,2.5,2.5,3.7,3.7C87.7,80.6,89,79.4,90.1,78.2z M104,80.3
				c-1.2,1.2-2.5,2.5-3.8,3.7c1.2,1.2,2.5,2.5,3.7,3.6c1.2-1.2,2.5-2.5,3.7-3.7C106.4,82.7,105.2,81.5,104,80.3z M98.2,86.2
				c-1.2,1.2-2.5,2.5-3.7,3.7c1.2,1.2,2.5,2.5,3.6,3.6c1.2-1.2,2.5-2.5,3.7-3.7C100.6,88.6,99.3,87.3,98.2,86.2z M50.4,34.1
				c1.3,1.2,2.5,2.5,3.7,3.7c1.2-1.2,2.5-2.5,3.7-3.7c-1.2-1.2-2.4-2.5-3.6-3.7C52.9,31.6,51.6,32.9,50.4,34.1z M51.9,40
				c-1.2-1.2-2.5-2.5-3.7-3.7c-1.2,1.2-2.5,2.5-3.6,3.6c1.2,1.2,2.5,2.5,3.7,3.7C49.5,42.4,50.7,41.1,51.9,40z M94.4,78
				c1.3,1.3,2.5,2.6,3.7,3.8c1.2-1.2,2.5-2.5,3.6-3.6c-1.2-1.2-2.5-2.5-3.7-3.8C96.8,75.6,95.6,76.8,94.4,78z M92.2,87.7
				c1.3-1.3,2.6-2.6,3.7-3.7c-1.2-1.2-2.5-2.5-3.6-3.7c-1.2,1.2-2.5,2.5-3.7,3.7C89.8,85.2,91,86.5,92.2,87.7z"/>
			<path fill="#FFFFFF" d="M26.4,90.7c0.2-0.9,0.3-1.8,0.5-2.7c0.2-1.1,0.5-1.2,1.4-1.1c0.9,0.1,0.9,0.7,0.8,1.4
				c-0.4,3.8,0.3,7.3,2.8,10.3c2.8,3.3,6.4,4.7,10.6,4.6c0.5,0,1,0,1.5-0.1c0.6-0.1,1.1,0.1,1.2,0.8c0.1,0.7,0.1,1.3-0.8,1.4
				c-1.7,0.2-3.4,0.5-5,0.5c-3.7-0.1-7-1.4-9.6-4.2c-2-2.1-3-4.6-3.4-7.5c0-0.3-0.1-0.6-0.2-0.8C26.4,92.4,26.4,91.6,26.4,90.7z"/>
			<path fill="#FFFFFF" d="M44.5,78.3c-3-4.2-6-8.2-7-13.3c-0.3-1.7,0.2-3.1,1.7-4c2.7-1.7,5.7-2.1,8.8-1.8
				c8.8,0.7,15.7,4.9,20.6,12.2c2.9,4.3,4.5,9.2,4.4,14.5c0,2.2-0.4,4.3-1.3,6.2c-1.3,2.6-2.6,3.2-5.4,2.5c-3.4-0.9-6.4-2.7-9.4-4.6
				c-1-0.6-1.9-1.4-3-2.1c1.2-0.7,2.3-1.4,3.4-2c0.2-0.1,0.6,0.1,0.8,0.2c1.6,1.1,3.1,2.2,4.7,3.3c0.5,0.3,1.1,0.6,1.6,0.7
				c0.9,0.3,1.4-0.2,1.2-1.1c-0.2-0.9-0.5-1.9-0.9-2.8c-1.7-3.5-4.1-6.5-6.8-9.3c-3.1-3.3-6.5-6.4-10.4-8.7c-1.2-0.7-2.6-1.2-4-1.7
				c-0.4-0.2-1.2,0-1.5,0.3c-0.2,0.2-0.1,1,0.1,1.4c1.1,1.8,2.2,3.6,3.5,5.2c0.6,0.8,0.9,1.4,0.2,2.3C45.4,76.5,45,77.3,44.5,78.3z"
				/>
			<path fill="#FFFFFF" d="M46.6,84.3c0.9-1.6,2-3.3,3-5c0.5-0.9,1.1-1.8,1.6-2.6c0.5-0.8,1-1,1.9-0.6c1.5,0.7,2.5,1.7,3.2,3.2
				c0.3,0.7,0.2,1.4-0.6,1.8c-2.4,1.5-4.7,3-7.1,4.5c-0.5,0.3-0.6,0.5-0.4,1.1c0.8,2.3-0.4,4.6-2.8,5.2c-2.3,0.6-4.6-0.9-5-3.3
				c-0.4-2.2,1.2-4.4,3.5-4.6C44.6,83.8,45.5,84.2,46.6,84.3z"/>
			<path fill="#FFFFFF" d="M35,88.7c-0.1,5,3.5,8.6,8.5,8.6c0.3,0,0.7,0,1,0c0.6,0,1,0.3,1.1,0.9c0.1,0.6-0.1,1.1-0.8,1.2
				c-3.8,0.9-8.4,0.2-10.9-3.8c-1.6-2.5-1.7-5.3-1.1-8.1c0.1-0.6,0.6-0.9,1.2-0.8c0.6,0.1,1,0.4,0.9,1.1C35,88.1,35,88.4,35,88.7z"
				/>
		</g>
	</g>
</g>
</svg>
