<?xml version="1.0" encoding="utf-8"?>
<!-- Generator: Adobe Illustrator 18.1.1, SVG Export Plug-In . SVG Version: 6.00 Build 0)  -->
<svg version="1.1" id="Layer_1" xmlns="http://www.w3.org/2000/svg" xmlns:xlink="http://www.w3.org/1999/xlink" x="0px" y="0px"
	 viewBox="0 0 35 35" enable-background="new 0 0 35 35" xml:space="preserve">
<g>
	<path fill="#FFFFFF" d="M9.7,29.2c0,0,7.8,6.1,9.8,4.6c1.9-1.5,7-7.5,7-7.5s-0.8-5.3,0-10.3s0-9,0-9s-0.1-4.7,0.3-5.9
		C27.2,0,18,7,18.3,8.6C18.5,10.1,13,15,13,15l-5.6,4.9L9.7,29.2z"/>
	<polygon fill="#7FC6C2" points="5.6,29.3 3.4,20 7.4,19.9 9.7,29.2 	"/>
	<path fill="#B3F4F2" d="M22.7,1c-0.9,0-8.7,6.1-8.5,7.6c0.3,1.6-5.3,6.6-5.3,6.6L3.4,20l4-0.1l5.6-4.8c0,0,5.6-5,5.3-6.5
		C18,7.1,26.2,1,26.8,1H22.7z"/>
	<path fill="#7FC6C2" d="M18.8,34.1L13,34c0,0-2.4,0.1-7.4-4.7l4.2-0.1C9.7,29.2,15.9,34.1,18.8,34.1z"/>
</g>
</svg>
